<?xml version="1.0" encoding="UTF-8"?>
<svg width="56px" height="56px" viewBox="0 0 56 56" version="1.1" xmlns="http://www.w3.org/2000/svg" xmlns:xlink="http://www.w3.org/1999/xlink">
    <!-- Generator: Sketch 50.2 (55047) - http://www.bohemiancoding.com/sketch -->
    <title>button-instagram</title>
    <desc>Created with Sketch.</desc>
    <defs></defs>
    <g id="Page-1" stroke="none" stroke-width="1" fill="none" fill-rule="evenodd">
        <g id="button-instagram" fill="#FFFFFF" fill-rule="nonzero">
            <path d="M28,55.8 C12.646484,55.8 0.2,43.353516 0.2,28 C0.2,12.646484 12.646484,0.2 28,0.2 C43.353516,0.2 55.8,12.646484 55.8,28 C55.8,43.353516 43.353516,55.8 28,55.8 Z M28,54.8 C42.8012313,54.8 54.8,42.8012313 54.8,28 C54.8,13.1987687 42.8012313,1.2 28,1.2 C13.1987687,1.2 1.2,13.1987687 1.2,28 C1.2,42.8012313 13.1987687,54.8 28,54.8 Z" id="Oval"></path>
            <g id="Group" transform="translate(15.400000, 15.400000)">
                <path d="M3.7,1.2 C2.31928813,1.2 1.2,2.31928813 1.2,3.7 L1.2,21.5 C1.2,22.8807119 2.31928813,24 3.7,24 L21.5,24 C22.8807119,24 24,22.8807119 24,21.5 L24,3.7 C24,2.31928813 22.8807119,1.2 21.5,1.2 L3.7,1.2 Z M3.7,0.2 L21.5,0.2 C23.4329966,0.2 25,1.76700338 25,3.7 L25,21.5 C25,23.4329966 23.4329966,25 21.5,25 L3.7,25 C1.76700338,25 0.2,23.4329966 0.2,21.5 L0.2,3.7 C0.2,1.76700338 1.76700338,0.2 3.7,0.2 Z" id="Rectangle"></path>
                <path d="M7.36088433,9.1 C7.07177415,9.53190814 6.83465546,10.0015594 6.65848199,10.5 L1.19997559,10.5 L1.19997559,9.1 L7.36088433,9.1 Z M17.8391157,9.1 L24.0000244,9.1 L24.0000244,10.5 L18.541518,10.5 C18.3653445,10.0015594 18.1282258,9.53190814 17.8391157,9.1 Z" id="Combined-Shape"></path>
                <g id="Oval-2" transform="translate(5.600000, 5.600000)">
                    <path d="M7,13.8 C3.2444637,13.8 0.2,10.7555363 0.2,7 C0.2,3.2444637 3.2444637,0.2 7,0.2 C10.7555363,0.2 13.8,3.2444637 13.8,7 C13.8,10.7555363 10.7555363,13.8 7,13.8 Z M7,12.8 C10.2032515,12.8 12.8,10.2032515 12.8,7 C12.8,3.79674845 10.2032515,1.2 7,1.2 C3.79674845,1.2 1.2,3.79674845 1.2,7 C1.2,10.2032515 3.79674845,12.8 7,12.8 Z" id="Oval"></path>
                </g>
            </g>
        </g>
    </g>
</svg>